<svg width="947" height="1273" viewBox="0 0 947 1273" fill="none" xmlns="http://www.w3.org/2000/svg">
<g opacity="0.8">
<mask id="mask0_55_6" style="mask-type:alpha" maskUnits="userSpaceOnUse" x="-212" y="0" width="1160" height="1273">
<rect x="947" y="1273" width="1158" height="1273" transform="rotate(-180 947 1273)" fill="white"/>
</mask>
<g mask="url(#mask0_55_6)">
<g opacity="0.3" filter="url(#filter0_f_55_6)">
<path d="M-17.8105 770.707C133.068 833.887 321.176 789.896 402.341 672.45C483.506 555.004 426.992 408.578 276.113 345.398C125.235 282.218 -62.8729 326.209 -144.038 443.655C-225.203 561.101 -168.689 707.527 -17.8105 770.707Z" fill="#9EC1EB"/>
</g>
<g style="mix-blend-mode:overlay" filter="url(#filter1_f_55_6)">
<path d="M59.826 839.425L324.774 620.393C507.565 469.282 423.068 762.505 394.16 981.784C365.254 1201.06 -873.692 1308.42 -395.239 1128.66C-139.949 1032.75 -35.0096 909.631 59.826 839.425Z" fill="#837ABA"/>
<path d="M424.9 959.884C232.397 873.799 279.736 742.67 327.469 687.867C318.006 680.583 279.735 624.224 202.356 457.059C105.633 248.102 573.828 422.598 804.446 703.039C1035.06 983.479 665.53 1067.49 424.9 959.884Z" fill="#B0D1F7"/>
</g>
</g>
</g>
<defs>
<filter id="filter0_f_55_6" x="-401.119" y="96.5332" width="1060.54" height="923.038" filterUnits="userSpaceOnUse" color-interpolation-filters="sRGB">
<feFlood flood-opacity="0" result="BackgroundImageFix"/>
<feBlend mode="normal" in="SourceGraphic" in2="BackgroundImageFix" result="shape"/>
<feGaussianBlur stdDeviation="110" result="effect1_foregroundBlur_55_6"/>
</filter>
<filter id="filter1_f_55_6" x="-765" y="105" width="1902.28" height="1374.41" filterUnits="userSpaceOnUse" color-interpolation-filters="sRGB">
<feFlood flood-opacity="0" result="BackgroundImageFix"/>
<feBlend mode="normal" in="SourceGraphic" in2="BackgroundImageFix" result="shape"/>
<feGaussianBlur stdDeviation="130" result="effect1_foregroundBlur_55_6"/>
</filter>
</defs>
</svg>
